<?xml version="1.0" encoding="UTF-8" standalone="no"?>
<!-- Created with Inkscape (http://www.inkscape.org/) -->

<svg
   width="100%"
   height="auto"
   viewBox="0 0 37.792911 25.333996"
   version="1.1"
   id="svg1"
   sodipodi:docname="2_02_03-rectangular_container.svg"
   inkscape:version="1.3.2 (091e20e, 2023-11-25, custom)"
   xml:space="preserve"
   xmlns:inkscape="http://www.inkscape.org/namespaces/inkscape"
   xmlns:sodipodi="http://sodipodi.sourceforge.net/DTD/sodipodi-0.dtd"
   xmlns="http://www.w3.org/2000/svg"
   xmlns:svg="http://www.w3.org/2000/svg"><sodipodi:namedview
     id="namedview1"
     pagecolor="#ffffff"
     bordercolor="#000000"
     borderopacity="0.25"
     inkscape:showpageshadow="2"
     inkscape:pageopacity="0.0"
     inkscape:pagecheckerboard="0"
     inkscape:deskcolor="#d1d1d1"
     inkscape:document-units="px"
     showguides="false"
     showgrid="true"
     inkscape:zoom="2.4034416"
     inkscape:cx="99.024665"
     inkscape:cy="112.96301"
     inkscape:window-width="1920"
     inkscape:window-height="1023"
     inkscape:window-x="-8"
     inkscape:window-y="-8"
     inkscape:window-maximized="1"
     inkscape:current-layer="layer1"><inkscape:grid
       id="grid8"
       units="px"
       originx="-76.21137"
       originy="-43.457676"
       spacingx="0.26458333"
       spacingy="0.26458334"
       empcolor="#0099e5"
       empopacity="0.30196078"
       color="#0099e5"
       opacity="0.14901961"
       empspacing="5"
       dotted="false"
       gridanglex="30"
       gridanglez="30"
       visible="true" /></sodipodi:namedview><defs
     id="defs1" /><g
     inkscape:groupmode="layer"
     id="layer1"
     inkscape:label="layer"
     transform="translate(-76.211335,-43.457638)"><path
       style="fill:none;stroke:#000000;stroke-width:0.264583;stroke-dasharray:0.264583, 0.529167;stroke-dashoffset:0"
       d="m 76.399122,49.868592 27.466258,2.421874"
       id="path39" /><path
       style="fill:none;stroke:#000000;stroke-width:0.264583;stroke-dasharray:0.264583, 0.529167;stroke-dashoffset:0"
       d="M 76.344083,64.509922 86.692088,58.208338 86.416874,43.593736"
       id="path40" /><path
       style="fill:none;stroke:#000000;stroke-width:0.264583;stroke-dasharray:0.264583, 0.529167;stroke-dashoffset:0"
       d="M 113.99322,60.491814 86.692085,58.208338"
       id="path41" /><path
       style="fill:none;stroke:#000000;stroke-width:0.264583;stroke-dasharray:none;stroke-dashoffset:0"
       d="m 86.416878,43.593738 -10.017752,6.274856 -0.05504,14.64133 27.576334,2.256745 9.8504,-5.912496 V 46.302087 Z"
       id="path42" /><path
       style="fill:none;stroke:#000000;stroke-width:0.264583;stroke-dasharray:none;stroke-dashoffset:0"
       d="m 76.399122,49.868592 27.466258,2.421874 0.055,14.476201 -0.055,-14.476201 9.90544,-5.988381"
       id="path43" /><path
       d="m 89.340928,67.424619 c -0.0661,-0.132292 -0.16536,-0.225999 -0.32522,-0.225999 -0.4079,0 -0.84336,0.518143 -0.84336,1.030773 0,0.33073 0.19293,0.56224 0.46303,0.56224 0.0717,0 0.24804,-0.01654 0.4575,-0.264583 0.0276,0.148828 0.15435,0.264583 0.31971,0.264583 0.12678,0 0.20395,-0.08268 0.26458,-0.192925 0.0551,-0.12678 0.10473,-0.341754 0.10473,-0.347266 0,-0.03858 -0.0331,-0.03858 -0.0441,-0.03858 -0.0331,0 -0.0386,0.01654 -0.0496,0.06615 -0.0606,0.225998 -0.12127,0.43546 -0.26459,0.43546 -0.0992,0 -0.10473,-0.09371 -0.10473,-0.159852 0,-0.07717 0.006,-0.110244 0.0441,-0.264584 0.0386,-0.143316 0.0441,-0.181901 0.0772,-0.314193 l 0.12678,-0.490582 c 0.0221,-0.09922 0.0221,-0.104731 0.0221,-0.121267 0,-0.06063 -0.0386,-0.09371 -0.0992,-0.09371 -0.0882,0 -0.1378,0.07717 -0.14883,0.154341 z m -0.226,0.909505 c -0.0221,0.06615 -0.0221,0.07166 -0.0717,0.132292 -0.15435,0.192926 -0.29766,0.248047 -0.39688,0.248047 -0.17639,0 -0.226,-0.192925 -0.226,-0.330729 0,-0.176389 0.11024,-0.606337 0.19293,-0.771702 0.11024,-0.20395 0.26458,-0.336242 0.4079,-0.336242 0.226,0 0.2756,0.286632 0.2756,0.308681 0,0.02205 -0.006,0.0441 -0.011,0.06063 z m 0,0"
       id="path2"
       style="stroke-width:0.352778" /><path
       d="m 105.58525,56.03651 c 0,0 0,-0.03858 -0.0441,-0.03858 -0.0827,0 -0.33624,0.02756 -0.42995,0.03858 -0.0276,0 -0.0661,0.0055 -0.0661,0.06615 0,0.0441 0.0331,0.0441 0.0827,0.0441 0.17087,0 0.17639,0.02205 0.17639,0.06063 l -0.011,0.07166 -0.50712,2.022961 c -0.0165,0.04961 -0.0165,0.05512 -0.0165,0.07717 0,0.08268 0.0717,0.09922 0.10473,0.09922 0.0551,0 0.11024,-0.0441 0.12678,-0.09371 l 0.0661,-0.264584 0.0772,-0.314193 c 0.022,-0.08268 0.0441,-0.159852 0.0606,-0.237022 0.006,-0.02205 0.0386,-0.137804 0.0386,-0.159853 0.011,-0.03307 0.12127,-0.225998 0.24254,-0.325217 0.0772,-0.05512 0.1819,-0.121268 0.33624,-0.121268 0.14883,0 0.18741,0.121268 0.18741,0.248047 0,0.187414 -0.13229,0.573265 -0.21497,0.788239 -0.0276,0.07717 -0.0496,0.121267 -0.0496,0.192925 0,0.165365 0.12678,0.286632 0.29214,0.286632 0.33073,0 0.45751,-0.51263 0.45751,-0.540191 0,-0.03858 -0.0276,-0.03858 -0.0386,-0.03858 -0.0386,0 -0.0386,0.01102 -0.0551,0.06615 -0.0496,0.187413 -0.16537,0.43546 -0.35829,0.43546 -0.0606,0 -0.0827,-0.03307 -0.0827,-0.115755 0,-0.08819 0.0276,-0.170877 0.0606,-0.248047 0.0551,-0.154341 0.21497,-0.573264 0.21497,-0.777214 0,-0.225999 -0.1378,-0.374827 -0.40239,-0.374827 -0.22048,0 -0.39136,0.110243 -0.52365,0.270096 z m 0,0"
       id="path5"
       style="stroke-width:0.352778" /><path
       d="m 36.082236,20.516411 c 0,0 0,-0.03859 -0.0441,-0.03859 -0.07717,0 -0.336241,0.02756 -0.429948,0.03859 -0.02756,0 -0.06615,0.0055 -0.06615,0.06614 0,0.0441 0.03307,0.0441 0.08819,0.0441 0.165364,0 0.170876,0.02205 0.170876,0.06063 0,0.02205 -0.02756,0.143316 -0.0441,0.214975 l -0.292144,1.146528 c -0.03858,0.176389 -0.05512,0.237023 -0.05512,0.35829 0,0.330729 0.187414,0.551216 0.446485,0.551216 0.413412,0 0.848872,-0.523655 0.848872,-1.030773 0,-0.319705 -0.187413,-0.56224 -0.468533,-0.56224 -0.159853,0 -0.308681,0.104731 -0.413412,0.209462 z m -0.325217,1.328429 c 0.01654,-0.07717 0.01654,-0.08268 0.04961,-0.121267 0.170876,-0.225999 0.330729,-0.28112 0.424436,-0.28112 0.126779,0 0.220486,0.104731 0.220486,0.330729 0,0.209462 -0.115755,0.61185 -0.181901,0.744141 -0.115756,0.237023 -0.275608,0.363803 -0.413412,0.363803 -0.121267,0 -0.237023,-0.09371 -0.237023,-0.352778 0,-0.07166 0,-0.137804 0.05512,-0.358291 z m 0,0"
       id="path1"
       style="stroke-width:0.352778"
       transform="translate(76.2113,43.4576)" /></g></svg>
