<?xml version="1.0" encoding="UTF-8" standalone="no"?>
<!-- Created with Inkscape (http://www.inkscape.org/) -->

<svg
   width="100%"
   height="auto"
   viewBox="0 0 32.356342 21.745449"
   version="1.1"
   id="svg1"
   sodipodi:docname="template.svg"
   inkscape:version="1.3.2 (091e20e, 2023-11-25, custom)"
   xml:space="preserve"
   xmlns:inkscape="http://www.inkscape.org/namespaces/inkscape"
   xmlns:sodipodi="http://sodipodi.sourceforge.net/DTD/sodipodi-0.dtd"
   xmlns="http://www.w3.org/2000/svg"
   xmlns:svg="http://www.w3.org/2000/svg"><sodipodi:namedview
     id="namedview1"
     pagecolor="#ffffff"
     bordercolor="#000000"
     borderopacity="0.25"
     inkscape:showpageshadow="2"
     inkscape:pageopacity="0.0"
     inkscape:pagecheckerboard="0"
     inkscape:deskcolor="#d1d1d1"
     inkscape:document-units="px"
     showguides="false"
     showgrid="true"
     inkscape:zoom="6.7979594"
     inkscape:cx="345.03001"
     inkscape:cy="205.42929"
     inkscape:window-width="1920"
     inkscape:window-height="1023"
     inkscape:window-x="-8"
     inkscape:window-y="-8"
     inkscape:window-maximized="1"
     inkscape:current-layer="layer1"><inkscape:grid
       id="grid8"
       units="px"
       originx="-75.654287"
       originy="-39.10872"
       spacingx="0.26458333"
       spacingy="0.26458334"
       empcolor="#0099e5"
       empopacity="0.30196078"
       color="#0099e5"
       opacity="0.14901961"
       empspacing="5"
       dotted="false"
       gridanglex="30"
       gridanglez="30"
       visible="true" /></sodipodi:namedview><defs
     id="defs1" /><g
     inkscape:groupmode="layer"
     id="layer1"
     inkscape:label="layer"
     transform="translate(-75.654287,-39.10872)"><rect
       style="fill:none;stroke:#000000;stroke-width:0.264583"
       id="rect1"
       width="27.781248"
       height="17.197918"
       x="78.052071"
       y="41.010422" /><path
       d="m 107.33263,56.091671 c 0.0221,-0.08819 0.10473,-0.413412 0.34727,-0.413412 0.0165,0 0.10473,0 0.17639,0.0441 -0.0992,0.02205 -0.16537,0.104731 -0.16537,0.192925 0,0.05512 0.0386,0.121267 0.13229,0.121267 0.0772,0 0.18742,-0.06063 0.18742,-0.203949 0,-0.181901 -0.20395,-0.231511 -0.32522,-0.231511 -0.20395,0 -0.32522,0.187413 -0.36932,0.264584 -0.0882,-0.231511 -0.2756,-0.264584 -0.38033,-0.264584 -0.36381,0 -0.56776,0.451997 -0.56776,0.540191 0,0.03859 0.0386,0.03859 0.0441,0.03859 0.0276,0 0.0386,-0.01102 0.0441,-0.03859 0.12127,-0.374826 0.35278,-0.463021 0.47404,-0.463021 0.0662,0 0.18742,0.03307 0.18742,0.237023 0,0.110243 -0.0606,0.341754 -0.18742,0.837848 -0.0551,0.214974 -0.1819,0.363802 -0.33624,0.363802 -0.022,0 -0.0992,0 -0.17639,-0.0441 0.0882,-0.02205 0.16537,-0.09371 0.16537,-0.192926 0,-0.09371 -0.0772,-0.121267 -0.12678,-0.121267 -0.11025,0 -0.19293,0.08819 -0.19293,0.20395 0,0.159852 0.17088,0.23151 0.32522,0.23151 0.23702,0 0.3638,-0.248047 0.36931,-0.264583 0.0441,0.126779 0.17088,0.264583 0.38034,0.264583 0.36381,0 0.56224,-0.451997 0.56224,-0.540191 0,-0.03858 -0.0276,-0.03858 -0.0386,-0.03858 -0.0331,0 -0.0386,0.01654 -0.0496,0.03858 -0.11576,0.380339 -0.35278,0.463021 -0.46302,0.463021 -0.13781,0 -0.19293,-0.110243 -0.19293,-0.23151 0,-0.07717 0.0165,-0.154341 0.0551,-0.308681 z m 0,0"
       id="path2-2"
       style="display:inline;stroke-width:0.352778"
       inkscape:label="x" /><path
       d="m 107.33263,42.601747 c 0.0221,-0.08819 0.10473,-0.413412 0.34727,-0.413412 0.0165,0 0.10473,0 0.17639,0.0441 -0.0992,0.02205 -0.16537,0.104731 -0.16537,0.192925 0,0.05512 0.0386,0.121267 0.13229,0.121267 0.0772,0 0.18742,-0.06063 0.18742,-0.203949 0,-0.181901 -0.20395,-0.231511 -0.32522,-0.231511 -0.20395,0 -0.32522,0.187413 -0.36932,0.264584 -0.0882,-0.231511 -0.2756,-0.264584 -0.38033,-0.264584 -0.36381,0 -0.56776,0.451997 -0.56776,0.540191 0,0.03859 0.0386,0.03859 0.0441,0.03859 0.0276,0 0.0386,-0.01102 0.0441,-0.03859 0.12127,-0.374826 0.35278,-0.463021 0.47404,-0.463021 0.0662,0 0.18742,0.03307 0.18742,0.237023 0,0.110243 -0.0606,0.341754 -0.18742,0.837848 -0.0551,0.214974 -0.1819,0.363802 -0.33624,0.363802 -0.022,0 -0.0992,0 -0.17639,-0.0441 0.0882,-0.02205 0.16537,-0.09371 0.16537,-0.192926 0,-0.09371 -0.0772,-0.121267 -0.12678,-0.121267 -0.11025,0 -0.19293,0.08819 -0.19293,0.20395 0,0.159852 0.17088,0.23151 0.32522,0.23151 0.23702,0 0.3638,-0.248047 0.36931,-0.264583 0.0441,0.126779 0.17088,0.264583 0.38034,0.264583 0.36381,0 0.56224,-0.451997 0.56224,-0.540191 0,-0.03858 -0.0276,-0.03858 -0.0386,-0.03858 -0.0331,0 -0.0386,0.01654 -0.0496,0.03858 -0.11576,0.380339 -0.35278,0.463021 -0.46302,0.463021 -0.13781,0 -0.19293,-0.110243 -0.19293,-0.23151 0,-0.07717 0.0165,-0.154341 0.0551,-0.308681 z m 0,0"
       id="path2-2-2"
       style="display:inline;stroke-width:0.352778"
       inkscape:label="x" /><path
       d="m 104.10802,39.599302 c 0.0221,-0.08819 0.10473,-0.413412 0.34727,-0.413412 0.0165,0 0.10473,0 0.17639,0.0441 -0.0992,0.02205 -0.16537,0.104731 -0.16537,0.192925 0,0.05512 0.0386,0.121267 0.13229,0.121267 0.0772,0 0.18742,-0.06063 0.18742,-0.203949 0,-0.181901 -0.20395,-0.231511 -0.32522,-0.231511 -0.20395,0 -0.32522,0.187413 -0.36932,0.264584 -0.0882,-0.231511 -0.2756,-0.264584 -0.38033,-0.264584 -0.36381,0 -0.56776,0.451997 -0.56776,0.540191 0,0.03859 0.0386,0.03859 0.0441,0.03859 0.0276,0 0.0386,-0.01102 0.0441,-0.03859 0.12127,-0.374826 0.35278,-0.463021 0.47404,-0.463021 0.0662,0 0.18742,0.03307 0.18742,0.237023 0,0.110243 -0.0606,0.341754 -0.18742,0.837848 -0.0551,0.214974 -0.1819,0.363802 -0.33624,0.363802 -0.022,0 -0.0992,0 -0.17639,-0.0441 0.0882,-0.02205 0.16537,-0.09371 0.16537,-0.192926 0,-0.09371 -0.0772,-0.121267 -0.12678,-0.121267 -0.11025,0 -0.19293,0.08819 -0.19293,0.20395 0,0.159852 0.17088,0.23151 0.32522,0.23151 0.23702,0 0.3638,-0.248047 0.36931,-0.264583 0.0441,0.126779 0.17088,0.264583 0.38034,0.264583 0.36381,0 0.56224,-0.451997 0.56224,-0.540191 0,-0.03858 -0.0276,-0.03858 -0.0386,-0.03858 -0.0331,0 -0.0386,0.01654 -0.0496,0.03858 -0.11576,0.380339 -0.35278,0.463021 -0.46302,0.463021 -0.13781,0 -0.19293,-0.110243 -0.19293,-0.23151 0,-0.07717 0.0165,-0.154341 0.0551,-0.308681 z m 0,0"
       id="path2-2-2-1"
       style="display:inline;stroke-width:0.352778"
       inkscape:label="x" /><path
       d="m 80.392016,39.599302 c 0.0221,-0.08819 0.10473,-0.413412 0.34727,-0.413412 0.0165,0 0.10473,0 0.17639,0.0441 -0.0992,0.02205 -0.16537,0.104731 -0.16537,0.192925 0,0.05512 0.0386,0.121267 0.13229,0.121267 0.0772,0 0.18742,-0.06063 0.18742,-0.203949 0,-0.181901 -0.20395,-0.231511 -0.32522,-0.231511 -0.20395,0 -0.32522,0.187413 -0.36932,0.264584 -0.0882,-0.231511 -0.2756,-0.264584 -0.38033,-0.264584 -0.36381,0 -0.56776,0.451997 -0.56776,0.540191 0,0.03859 0.0386,0.03859 0.0441,0.03859 0.0276,0 0.0386,-0.01102 0.0441,-0.03859 0.12127,-0.374826 0.35278,-0.463021 0.47404,-0.463021 0.0662,0 0.18742,0.03307 0.18742,0.237023 0,0.110243 -0.0606,0.341754 -0.18742,0.837848 -0.0551,0.214974 -0.1819,0.363802 -0.33624,0.363802 -0.022,0 -0.0992,0 -0.17639,-0.0441 0.0882,-0.02205 0.16537,-0.09371 0.16537,-0.192926 0,-0.09371 -0.0772,-0.121267 -0.12678,-0.121267 -0.11025,0 -0.19293,0.08819 -0.19293,0.20395 0,0.159852 0.17088,0.23151 0.32522,0.23151 0.23702,0 0.3638,-0.248047 0.36931,-0.264583 0.0441,0.126779 0.17088,0.264583 0.38034,0.264583 0.36381,0 0.56224,-0.451997 0.56224,-0.540191 0,-0.03858 -0.0276,-0.03858 -0.0386,-0.03858 -0.0331,0 -0.0386,0.01654 -0.0496,0.03858 -0.11576,0.380339 -0.35278,0.463021 -0.46302,0.463021 -0.13781,0 -0.19293,-0.110243 -0.19293,-0.23151 0,-0.07717 0.0165,-0.154341 0.0551,-0.308681 z m 0,0"
       id="path2-2-2-1-8"
       style="display:inline;stroke-width:0.352778"
       inkscape:label="x" /><path
       d="m 76.905561,42.862504 c 0.0221,-0.08819 0.10473,-0.413412 0.34727,-0.413412 0.0165,0 0.10473,0 0.17639,0.0441 -0.0992,0.02205 -0.16537,0.104731 -0.16537,0.192925 0,0.05512 0.0386,0.121267 0.13229,0.121267 0.0772,0 0.18742,-0.06063 0.18742,-0.203949 0,-0.181901 -0.20395,-0.231511 -0.32522,-0.231511 -0.20395,0 -0.32522,0.187413 -0.36932,0.264584 -0.0882,-0.231511 -0.2756,-0.264584 -0.38033,-0.264584 -0.36381,0 -0.56776,0.451997 -0.56776,0.540191 0,0.03859 0.0386,0.03859 0.0441,0.03859 0.0276,0 0.0386,-0.01102 0.0441,-0.03859 0.12127,-0.374826 0.35278,-0.463021 0.47404,-0.463021 0.0662,0 0.18742,0.03307 0.18742,0.237023 0,0.110243 -0.0606,0.341754 -0.18742,0.837848 -0.0551,0.214974 -0.1819,0.363802 -0.33624,0.363802 -0.022,0 -0.0992,0 -0.17639,-0.0441 0.0882,-0.02205 0.16537,-0.09371 0.16537,-0.192926 0,-0.09371 -0.0772,-0.121267 -0.12678,-0.121267 -0.11025,0 -0.19293,0.08819 -0.19293,0.20395 0,0.159852 0.17088,0.23151 0.32522,0.23151 0.23702,0 0.3638,-0.248047 0.36931,-0.264583 0.0441,0.126779 0.17088,0.264583 0.38034,0.264583 0.36381,0 0.56224,-0.451997 0.56224,-0.540191 0,-0.03858 -0.0276,-0.03858 -0.0386,-0.03858 -0.0331,0 -0.0386,0.01654 -0.0496,0.03858 -0.11576,0.380339 -0.35278,0.463021 -0.46302,0.463021 -0.13781,0 -0.19293,-0.110243 -0.19293,-0.23151 0,-0.07717 0.0165,-0.154341 0.0551,-0.308681 z m 0,0"
       id="path2-2-2-1-8-9"
       style="display:inline;stroke-width:0.352778"
       inkscape:label="x" /><path
       d="m 76.723651,55.782992 c 0.0221,-0.08819 0.10473,-0.413412 0.34727,-0.413412 0.0165,0 0.10473,0 0.17639,0.0441 -0.0992,0.02205 -0.16537,0.104731 -0.16537,0.192925 0,0.05512 0.0386,0.121267 0.13229,0.121267 0.0772,0 0.18742,-0.06063 0.18742,-0.203949 0,-0.181901 -0.20395,-0.231511 -0.32522,-0.231511 -0.20395,0 -0.32522,0.187413 -0.36932,0.264584 -0.0882,-0.231511 -0.2756,-0.264584 -0.38033,-0.264584 -0.36381,0 -0.56776,0.451997 -0.56776,0.540191 0,0.03859 0.0386,0.03859 0.0441,0.03859 0.0276,0 0.0386,-0.01102 0.0441,-0.03859 0.12127,-0.374826 0.35278,-0.463021 0.47404,-0.463021 0.0662,0 0.18742,0.03307 0.18742,0.237023 0,0.110243 -0.0606,0.341754 -0.18742,0.837848 -0.0551,0.214974 -0.1819,0.363802 -0.33624,0.363802 -0.022,0 -0.0992,0 -0.17639,-0.0441 0.0882,-0.02205 0.16537,-0.09371 0.16537,-0.192926 0,-0.09371 -0.0772,-0.121267 -0.12678,-0.121267 -0.11025,0 -0.19293,0.08819 -0.19293,0.20395 0,0.159852 0.17088,0.23151 0.32522,0.23151 0.23702,0 0.3638,-0.248047 0.36931,-0.264583 0.0441,0.126779 0.17088,0.264583 0.38034,0.264583 0.36381,0 0.56224,-0.451997 0.56224,-0.540191 0,-0.03858 -0.0276,-0.03858 -0.0386,-0.03858 -0.0331,0 -0.0386,0.01654 -0.0496,0.03858 -0.11576,0.380339 -0.35278,0.463021 -0.46302,0.463021 -0.13781,0 -0.19293,-0.110243 -0.19293,-0.23151 0,-0.07717 0.0165,-0.154341 0.0551,-0.308681 z m 0,0"
       id="path2-2-2-1-8-9-5"
       style="display:inline;stroke-width:0.352778"
       inkscape:label="x" /><path
       d="m 80.392016,59.407754 c 0.0221,-0.08819 0.10473,-0.413413 0.34727,-0.413413 0.0165,0 0.10473,0 0.17639,0.0441 -0.0992,0.02205 -0.16537,0.104731 -0.16537,0.192925 0,0.05512 0.0386,0.121267 0.13229,0.121267 0.0772,0 0.18742,-0.06063 0.18742,-0.203949 0,-0.181901 -0.20395,-0.231511 -0.32522,-0.231511 -0.20395,0 -0.32522,0.187413 -0.36932,0.264584 -0.0882,-0.231511 -0.2756,-0.264584 -0.38033,-0.264584 -0.36381,0 -0.56776,0.451997 -0.56776,0.540191 0,0.03859 0.0386,0.03859 0.0441,0.03859 0.0276,0 0.0386,-0.01102 0.0441,-0.03859 0.12127,-0.374826 0.35278,-0.463021 0.47404,-0.463021 0.0662,0 0.18742,0.03307 0.18742,0.237023 0,0.110243 -0.0606,0.341754 -0.18742,0.837848 -0.0551,0.214974 -0.1819,0.363802 -0.33624,0.363802 -0.022,0 -0.0992,0 -0.17639,-0.0441 0.0882,-0.02205 0.16537,-0.09371 0.16537,-0.192926 0,-0.09371 -0.0772,-0.121267 -0.12678,-0.121267 -0.11025,0 -0.19293,0.08819 -0.19293,0.20395 0,0.159852 0.17088,0.23151 0.32522,0.23151 0.23702,0 0.3638,-0.248047 0.36931,-0.264583 0.0441,0.126779 0.17088,0.264583 0.38034,0.264583 0.36381,0 0.56224,-0.451997 0.56224,-0.540191 0,-0.03858 -0.0276,-0.03858 -0.0386,-0.03858 -0.0331,0 -0.0386,0.01654 -0.0496,0.03858 -0.11576,0.380339 -0.35278,0.463021 -0.46302,0.463021 -0.13781,0 -0.19293,-0.110243 -0.19293,-0.23151 0,-0.07717 0.0165,-0.154341 0.0551,-0.308681 z m 0,0"
       id="path2-2-2-1-8-9-5-8"
       style="display:inline;stroke-width:0.352778"
       inkscape:label="x" /><path
       d="M 3.328125,-3.015625 C 3.390625,-3.265625 3.625,-4.1875 4.3125,-4.1875 c 0.046875,0 0.296875,0 0.5,0.125 C 4.53125,-4 4.34375,-3.765625 4.34375,-3.515625 c 0,0.15625 0.109375,0.34375 0.375,0.34375 0.21875,0 0.53125,-0.171875 0.53125,-0.578125 0,-0.515625 -0.578125,-0.65625 -0.921875,-0.65625 -0.578125,0 -0.921875,0.53125 -1.046875,0.75 -0.25,-0.65625 -0.78125,-0.75 -1.078125,-0.75 -1.03125,0 -1.609375,1.28125 -1.609375,1.53125 0,0.109375 0.109375,0.109375 0.125,0.109375 0.078125,0 0.109375,-0.03125 0.125,-0.109375 0.34375,-1.0625 1,-1.3125 1.34375,-1.3125 0.1875,0 0.53125,0.09375 0.53125,0.671875 0,0.3125 -0.171875,0.96875 -0.53125,2.375 -0.15625,0.609375 -0.515625,1.03125 -0.953125,1.03125 -0.0625,0 -0.28125,0 -0.5,-0.125 0.25,-0.0625 0.46875,-0.265625 0.46875,-0.546875 0,-0.265625 -0.21875,-0.34375 -0.359375,-0.34375 -0.3125,0 -0.546875,0.25 -0.546875,0.578125 0,0.453125 0.484375,0.65625 0.921875,0.65625 0.671875,0 1.03125,-0.703125 1.046875,-0.75 0.125,0.359375 0.484375,0.75 1.078125,0.75 1.03125,0 1.59375,-1.28125 1.59375,-1.53125 0,-0.109375 -0.078125,-0.109375 -0.109375,-0.109375 -0.09375,0 -0.109375,0.046875 -0.140625,0.109375 -0.328125,1.078125 -1,1.3125 -1.3125,1.3125 -0.390625,0 -0.546875,-0.3125 -0.546875,-0.65625 0,-0.21875 0.046875,-0.4375 0.15625,-0.875 z m 0,0"
       id="path2"
       transform="matrix(0.35277801,0,0,0.35277801,103.33081,60.815585)"
       inkscape:label="x" /><path
       style="display:inline;fill:#808080;stroke:#000000;stroke-width:0.264583"
       d="m 82.020827,58.208338 -3e-6,-3.96875 h -3.968747 v -9.260419 h 3.968747 v -3.96875 h 19.843746 v 3.96875 h 3.96875 v 9.260419 h -3.96875 v 3.96875 z"
       id="path4"
       sodipodi:nodetypes="ccccccccccccc"
       inkscape:label="x" /><rect
       style="display:inline;fill:#808080;stroke:#000000;stroke-width:0.264583;stroke-dasharray:0.264583, 0.264583;stroke-dashoffset:0"
       id="rect4"
       width="19.843748"
       height="9.2604179"
       x="82.020821"
       y="44.979172" /><path
       d="m 2.859375,-6.8125 c 0,0 0,-0.109375 -0.125,-0.109375 -0.234375,0 -0.953125,0.078125 -1.21875,0.109375 -0.078125,0 -0.1875,0.015625 -0.1875,0.1875 0,0.125 0.09375,0.125 0.234375,0.125 0.484375,0 0.5,0.0625 0.5,0.171875 L 2.03125,-6.125 0.59375,-0.390625 c -0.046875,0.140625 -0.046875,0.15625 -0.046875,0.21875 0,0.234375 0.203125,0.28125 0.296875,0.28125 0.15625,0 0.3125,-0.125 0.359375,-0.265625 l 0.1875,-0.75 0.21875,-0.890625 C 1.671875,-2.03125 1.734375,-2.25 1.78125,-2.46875 1.796875,-2.53125 1.890625,-2.859375 1.890625,-2.921875 1.921875,-3.015625 2.234375,-3.5625 2.578125,-3.84375 2.796875,-4 3.09375,-4.1875 3.53125,-4.1875 c 0.421875,0 0.53125,0.34375 0.53125,0.703125 0,0.53125 -0.375,1.625 -0.609375,2.234375 C 3.375,-1.03125 3.3125,-0.90625 3.3125,-0.703125 c 0,0.46875 0.359375,0.8125 0.828125,0.8125 0.9375,0 1.296875,-1.453125 1.296875,-1.53125 0,-0.109375 -0.078125,-0.109375 -0.109375,-0.109375 -0.109375,0 -0.109375,0.03125 -0.15625,0.1875 -0.140625,0.53125 -0.46875,1.234375 -1.015625,1.234375 -0.171875,0 -0.234375,-0.09375 -0.234375,-0.328125 0,-0.25 0.078125,-0.484375 0.171875,-0.703125 0.15625,-0.4375 0.609375,-1.625 0.609375,-2.203125 0,-0.640625 -0.390625,-1.0625 -1.140625,-1.0625 -0.625,0 -1.109375,0.3125 -1.484375,0.765625 z m 0,0"
       id="path8"
       transform="matrix(0.35277801,0,0,0.35277801,82.472821,44.177154)"
       inkscape:label="h" /><path
       d="M 3.71875,-3.765625 C 3.53125,-4.140625 3.25,-4.40625 2.796875,-4.40625 c -1.15625,0 -2.390625,1.46875 -2.390625,2.921875 0,0.9375 0.546875,1.59375 1.3125,1.59375 0.203125,0 0.703125,-0.046875 1.296875,-0.75 0.078125,0.421875 0.4375,0.75 0.90625,0.75 0.359375,0 0.578125,-0.234375 0.75,-0.546875 0.15625,-0.359375 0.296875,-0.96875 0.296875,-0.984375 0,-0.109375 -0.09375,-0.109375 -0.125,-0.109375 -0.09375,0 -0.109375,0.046875 -0.140625,0.1875 -0.171875,0.640625 -0.34375,1.234375 -0.75,1.234375 -0.28125,0 -0.296875,-0.265625 -0.296875,-0.453125 0,-0.21875 0.015625,-0.3125 0.125,-0.75 C 3.890625,-1.71875 3.90625,-1.828125 4,-2.203125 L 4.359375,-3.59375 c 0.0625,-0.28125 0.0625,-0.296875 0.0625,-0.34375 0,-0.171875 -0.109375,-0.265625 -0.28125,-0.265625 -0.25,0 -0.390625,0.21875 -0.421875,0.4375 z M 3.078125,-1.1875 C 3.015625,-1 3.015625,-0.984375 2.875,-0.8125 2.4375,-0.265625 2.03125,-0.109375 1.75,-0.109375 c -0.5,0 -0.640625,-0.546875 -0.640625,-0.9375 0,-0.5 0.3125,-1.71875 0.546875,-2.1875 0.3125,-0.578125 0.75,-0.953125 1.15625,-0.953125 0.640625,0 0.78125,0.8125 0.78125,0.875 0,0.0625 -0.015625,0.125 -0.03125,0.171875 z m 0,0"
       id="path6"
       transform="matrix(0.35277801,0,0,0.35277801,79.705721,50.425178)"
       inkscape:label="a" /><path
       d="m 2.578125,-6.8125 c 0,0 0,-0.109375 -0.140625,-0.109375 -0.21875,0 -0.953125,0.078125 -1.21875,0.109375 -0.078125,0 -0.1875,0.015625 -0.1875,0.203125 0,0.109375 0.109375,0.109375 0.25,0.109375 0.484375,0 0.5,0.09375 0.5,0.171875 L 1.75,-6.125 0.484375,-1.140625 C 0.453125,-1.03125 0.4375,-0.96875 0.4375,-0.8125 c 0,0.578125 0.4375,0.921875 0.90625,0.921875 0.328125,0 0.578125,-0.203125 0.75,-0.5625 0.171875,-0.375 0.296875,-0.953125 0.296875,-0.96875 0,-0.109375 -0.09375,-0.109375 -0.125,-0.109375 -0.09375,0 -0.109375,0.046875 -0.125,0.1875 C 1.96875,-0.703125 1.78125,-0.109375 1.375,-0.109375 c -0.296875,0 -0.296875,-0.3125 -0.296875,-0.453125 0,-0.25 0.015625,-0.296875 0.0625,-0.484375 z m 0,0"
       id="path5"
       transform="matrix(0.35277801,0,0,0.35277801,91.410772,57.028612)"
       inkscape:label="l" /></g></svg>
