<?xml version="1.0" encoding="UTF-8" standalone="no"?>
<!-- Created with Inkscape (http://www.inkscape.org/) -->

<svg
   width="100%"
   height="auto"
   viewBox="0 0 18.812733 16.829931"
   version="1.1"
   id="svg1"
   sodipodi:docname="2_02_06-figure.svg"
   inkscape:version="1.3.2 (091e20e, 2023-11-25, custom)"
   xml:space="preserve"
   xmlns:inkscape="http://www.inkscape.org/namespaces/inkscape"
   xmlns:sodipodi="http://sodipodi.sourceforge.net/DTD/sodipodi-0.dtd"
   xmlns="http://www.w3.org/2000/svg"
   xmlns:svg="http://www.w3.org/2000/svg"><sodipodi:namedview
     id="namedview1"
     pagecolor="#ffffff"
     bordercolor="#000000"
     borderopacity="0.25"
     inkscape:showpageshadow="2"
     inkscape:pageopacity="0.0"
     inkscape:pagecheckerboard="0"
     inkscape:deskcolor="#d1d1d1"
     inkscape:document-units="px"
     showguides="false"
     showgrid="true"
     inkscape:zoom="27.191838"
     inkscape:cx="11.91534"
     inkscape:cy="9.9110624"
     inkscape:window-width="1920"
     inkscape:window-height="1023"
     inkscape:window-x="-8"
     inkscape:window-y="-8"
     inkscape:window-maximized="1"
     inkscape:current-layer="layer1"><inkscape:grid
       id="grid8"
       units="px"
       originx="-72.395019"
       originy="-39.405057"
       spacingx="0.26458333"
       spacingy="0.26458334"
       empcolor="#0099e5"
       empopacity="0.30196078"
       color="#0099e5"
       opacity="0.14901961"
       empspacing="5"
       dotted="false"
       gridanglex="30"
       gridanglez="30"
       visible="true" /></sodipodi:namedview><defs
     id="defs1" /><g
     inkscape:groupmode="layer"
     id="layer1"
     inkscape:label="layer"
     transform="translate(-72.395, -39.4051)"><path
       style="display:inline;fill:#6c6c6c;stroke:#1c1c1c;stroke-width:0.264583;stroke-dasharray:none;stroke-dashoffset:0"
       d="M 72.76041,52.916671 H 88.635408 V 39.687502 Z"
       id="path13" /><path
       style="display:inline;fill:#6c6c6c;stroke:#1c1c1c;stroke-width:0.264583;stroke-dasharray:none;stroke-dashoffset:0"
       d="M 88.635408,52.916671 80.69791,46.302085"
       id="path14" /><g
       id="g27"
       inkscape:label="6_cm"
       transform="translate(-11.198227,8.320595)"><path
         d="M 1.09375,-3.421875 V -0.75 c 0,0.4375 -0.109375,0.4375 -0.78125,0.4375 V 0 c 0.359375,-0.015625 0.859375,-0.03125 1.140625,-0.03125 0.25,0 0.765625,0.015625 1.109375,0.03125 v -0.3125 c -0.671875,0 -0.78125,0 -0.78125,-0.4375 V -2.59375 C 1.78125,-3.625 2.5,-4.1875 3.125,-4.1875 c 0.640625,0 0.75,0.53125 0.75,1.109375 V -0.75 c 0,0.4375 -0.109375,0.4375 -0.78125,0.4375 V 0 c 0.34375,-0.015625 0.859375,-0.03125 1.125,-0.03125 0.25,0 0.78125,0.015625 1.109375,0.03125 v -0.3125 c -0.65625,0 -0.765625,0 -0.765625,-0.4375 v -1.84375 c 0,-1.03125 0.703125,-1.59375 1.34375,-1.59375 0.625,0 0.734375,0.53125 0.734375,1.109375 V -0.75 c 0,0.4375 -0.109375,0.4375 -0.78125,0.4375 V 0 c 0.34375,-0.015625 0.859375,-0.03125 1.125,-0.03125 0.265625,0 0.78125,0.015625 1.125,0.03125 v -0.3125 c -0.515625,0 -0.765625,0 -0.78125,-0.296875 v -1.90625 c 0,-0.859375 0,-1.15625 -0.3125,-1.515625 -0.140625,-0.171875 -0.46875,-0.375 -1.046875,-0.375 -0.828125,0 -1.28125,0.59375 -1.4375,0.984375 C 4.390625,-4.296875 3.65625,-4.40625 3.203125,-4.40625 2.46875,-4.40625 2,-3.984375 1.71875,-3.359375 V -4.40625 L 0.3125,-4.296875 v 0.3125 c 0.703125,0 0.78125,0.0625 0.78125,0.5625 z m 0,0"
         id="path17"
         inkscape:label="m"
         transform="matrix(0.35277801,0,0,0.35277801,93.568785,47.837222)"
         style="display:inline" /><path
         d="m 1.171875,-2.171875 c 0,-1.625 0.8125,-2.046875 1.34375,-2.046875 0.09375,0 0.71875,0.015625 1.0625,0.375 -0.40625,0.03125 -0.46875,0.328125 -0.46875,0.453125 0,0.265625 0.1875,0.453125 0.453125,0.453125 0.265625,0 0.46875,-0.15625 0.46875,-0.46875 0,-0.671875 -0.765625,-1.0625 -1.53125,-1.0625 -1.25,0 -2.15625,1.078125 -2.15625,2.3125 0,1.28125 0.984375,2.265625 2.140625,2.265625 1.328125,0 1.65625,-1.203125 1.65625,-1.296875 0,-0.09375 -0.109375,-0.09375 -0.140625,-0.09375 -0.078125,0 -0.109375,0.03125 -0.125,0.09375 -0.28125,0.921875 -0.9375,1.046875 -1.296875,1.046875 -0.53125,0 -1.40625,-0.421875 -1.40625,-2.03125 z m 0,0"
         id="path16"
         inkscape:label="c"
         transform="matrix(0.35277801,0,0,0.35277801,92.006904,47.837222)"
         style="display:inline" /><path
         d="m 1.3125,-3.265625 v -0.25 c 0,-2.515625 1.234375,-2.875 1.75,-2.875 0.234375,0 0.65625,0.0625 0.875,0.40625 -0.15625,0 -0.546875,0 -0.546875,0.4375 0,0.3125 0.234375,0.46875 0.453125,0.46875 0.15625,0 0.46875,-0.09375 0.46875,-0.484375 0,-0.59375 -0.4375,-1.078125 -1.265625,-1.078125 -1.28125,0 -2.625,1.28125 -2.625,3.484375 0,2.671875 1.15625,3.375 2.078125,3.375 1.109375,0 2.0625,-0.9375 2.0625,-2.25 0,-1.265625 -0.890625,-2.21875 -2,-2.21875 -0.671875,0 -1.046875,0.5 -1.25,0.984375 z M 2.5,-0.0625 c -0.625,0 -0.921875,-0.59375 -0.984375,-0.75 -0.1875,-0.46875 -0.1875,-1.265625 -0.1875,-1.4375 0,-0.78125 0.328125,-1.78125 1.21875,-1.78125 0.171875,0 0.625,0 0.9375,0.625 0.171875,0.359375 0.171875,0.875 0.171875,1.359375 0,0.484375 0,0.984375 -0.171875,1.34375 C 3.1875,-0.109375 2.734375,-0.0625 2.5,-0.0625 Z m 0,0"
         id="path15"
         transform="matrix(0.35277801,0,0,0.35277801,89.079253,47.837222)"
         inkscape:label="6" /></g><path
       d="m 86.226054,46.618372 c 0,0 0,-0.03859 -0.0441,-0.03859 -0.08268,0 -0.336242,0.02756 -0.429948,0.03859 -0.02756,0 -0.06615,0.0055 -0.06615,0.06615 0,0.0441 0.03307,0.0441 0.08268,0.0441 0.170877,0 0.176389,0.02205 0.176389,0.06063 l -0.01102,0.07166 -0.507118,2.022961 c -0.01654,0.04961 -0.01654,0.05512 -0.01654,0.07717 0,0.08268 0.07166,0.09922 0.104731,0.09922 0.05512,0 0.110243,-0.0441 0.12678,-0.09371 l 0.06615,-0.264584 0.07717,-0.314193 c 0.02205,-0.08268 0.0441,-0.159852 0.06063,-0.237023 0.0055,-0.02205 0.03859,-0.137804 0.03859,-0.159852 0.01102,-0.03307 0.121267,-0.225999 0.242534,-0.325217 0.07717,-0.05512 0.181902,-0.121268 0.336242,-0.121268 0.148828,0 0.187413,0.121268 0.187413,0.248047 0,0.187414 -0.132291,0.573264 -0.214974,0.788239 -0.02756,0.07717 -0.04961,0.121267 -0.04961,0.192925 0,0.165365 0.126779,0.286632 0.292144,0.286632 0.330729,0 0.457509,-0.51263 0.457509,-0.540191 0,-0.03858 -0.02756,-0.03858 -0.03858,-0.03858 -0.03858,0 -0.03858,0.01102 -0.05512,0.06615 -0.04961,0.187413 -0.165364,0.43546 -0.35829,0.43546 -0.06063,0 -0.08268,-0.03307 -0.08268,-0.115755 0,-0.08819 0.02756,-0.170877 0.06063,-0.248047 0.05512,-0.154341 0.214974,-0.573265 0.214974,-0.777214 0,-0.225999 -0.137804,-0.374827 -0.402388,-0.374827 -0.220486,0 -0.391363,0.110243 -0.523655,0.270096 z m 0,0"
       id="path2"
       inkscape:label="h"
       style="fill:#ffffff;stroke-width:0.352778" /><path
       d="m 90.100787,45.720075 c 0,0 0,-0.04245 -0.0485,-0.04245 -0.08488,0 -0.369846,0.03032 -0.472918,0.04245 -0.03032,0 -0.07276,0.006 -0.07276,0.07276 0,0.0485 0.03638,0.0485 0.09701,0.0485 0.181891,0 0.187954,0.02425 0.187954,0.0667 0,0.02425 -0.03032,0.157639 -0.0485,0.236458 l -0.321341,1.261114 c -0.04244,0.194018 -0.06063,0.260711 -0.06063,0.394098 0,0.363782 0.206143,0.606304 0.491106,0.606304 0.454729,0 0.933709,-0.575989 0.933709,-1.133789 0,-0.351657 -0.206143,-0.618431 -0.515359,-0.618431 -0.175828,0 -0.33953,0.115198 -0.454728,0.230396 z m -0.35772,1.461194 c 0.01819,-0.08488 0.01819,-0.09095 0.05457,-0.133387 0.187955,-0.248585 0.363783,-0.309215 0.466855,-0.309215 0.13945,0 0.242521,0.115198 0.242521,0.363782 0,0.230396 -0.127324,0.672998 -0.20008,0.818511 -0.127324,0.260711 -0.303152,0.400161 -0.454729,0.400161 -0.133387,0 -0.260711,-0.103072 -0.260711,-0.388035 0,-0.07882 0,-0.151576 0.06063,-0.394098 z m 0,0"
       id="path1"
       style="stroke-width:0.388035"
       inkscape:label="b" /><path
       d="m 3.953125,-3.78125 c -0.171875,0 -0.296875,0 -0.4375,0.125 -0.171875,0.15625 -0.1875,0.328125 -0.1875,0.390625 0,0.25 0.1875,0.359375 0.375,0.359375 0.28125,0 0.546875,-0.25 0.546875,-0.640625 0,-0.484375 -0.46875,-0.859375 -1.171875,-0.859375 -1.34375,0 -2.671875,1.421875 -2.671875,2.828125 0,0.90625 0.578125,1.6875 1.625,1.6875 1.421875,0 2.25,-1.0625 2.25,-1.171875 0,-0.0625 -0.046875,-0.140625 -0.109375,-0.140625 -0.0625,0 -0.078125,0.03125 -0.140625,0.109375 -0.78125,0.984375 -1.875,0.984375 -1.984375,0.984375 -0.625,0 -0.90625,-0.484375 -0.90625,-1.09375 0,-0.40625 0.203125,-1.375 0.546875,-1.984375 0.3125,-0.578125 0.859375,-1 1.40625,-1 0.328125,0 0.71875,0.125 0.859375,0.40625 z m 0,0"
       id="path24"
       inkscape:label="c"
       transform="matrix(0.42379893,0,0,0.42379893,78.37069,45.455275)" /></g></svg>
