<?xml version="1.0" encoding="UTF-8" standalone="no"?>
<!-- Created with Inkscape (http://www.inkscape.org/) -->

<svg
   width="100%"
   height="auto"
   viewBox="0 0 22.754168 22.754162"
   version="1.1"
   id="svg1"
   sodipodi:docname="template.svg"
   inkscape:version="1.3.2 (091e20e, 2023-11-25, custom)"
   xml:space="preserve"
   xmlns:inkscape="http://www.inkscape.org/namespaces/inkscape"
   xmlns:sodipodi="http://sodipodi.sourceforge.net/DTD/sodipodi-0.dtd"
   xmlns="http://www.w3.org/2000/svg"
   xmlns:svg="http://www.w3.org/2000/svg"><sodipodi:namedview
     id="namedview1"
     pagecolor="#ffffff"
     bordercolor="#000000"
     borderopacity="0.25"
     inkscape:showpageshadow="2"
     inkscape:pageopacity="0.0"
     inkscape:pagecheckerboard="0"
     inkscape:deskcolor="#d1d1d1"
     inkscape:document-units="px"
     showguides="false"
     showgrid="true"
     inkscape:zoom="4.8068832"
     inkscape:cx="326.823"
     inkscape:cy="206.26671"
     inkscape:window-width="1920"
     inkscape:window-height="1023"
     inkscape:window-x="-8"
     inkscape:window-y="-8"
     inkscape:window-maximized="1"
     inkscape:current-layer="layer1"><inkscape:grid
       id="grid8"
       units="px"
       originx="-79.796916"
       originy="-42.862507"
       spacingx="0.26458333"
       spacingy="0.26458334"
       empcolor="#0099e5"
       empopacity="0.30196078"
       color="#0099e5"
       opacity="0.14901961"
       empspacing="5"
       dotted="false"
       gridanglex="30"
       gridanglez="30"
       visible="true" /></sodipodi:namedview><defs
     id="defs1" /><g
     inkscape:groupmode="layer"
     id="layer1"
     inkscape:label="layer"
     transform="translate(-79.796911,-42.862508)"><circle
       style="display:inline;fill:#6c6c6c;stroke:#1c1c1c;stroke-width:0.264583"
       id="path1"
       cx="91.173996"
       cy="54.23959"
       r="11.24479"
       inkscape:export-filename="2_02_05-figure.svg"
       inkscape:export-xdpi="96"
       inkscape:export-ydpi="96" /><path
       style="display:inline;fill:#bcbcbc;stroke:#1c1c1c;stroke-width:0.264583"
       d="m 83.343741,46.302085 h 15.875 v 15.875003 h -15.875 z"
       id="path3" /><ellipse
       style="display:inline;fill:#bcbcbc;stroke:#1c1c1c;stroke-width:0.276058"
       id="path5"
       cx="91.281242"
       cy="62.17709"
       rx="7.9317613"
       ry="1.3171793" /><ellipse
       style="display:inline;fill:#bcbcbc;stroke:#1c1c1c;stroke-width:0.276058"
       id="path5-4"
       cx="91.281242"
       cy="46.307823"
       rx="7.9317613"
       ry="1.3171793" /><path
       style="display:inline;fill:#6c6c6c;stroke:#1c1c1c;stroke-width:0.264583"
       d="m 91.173995,42.994799 v 22.48958"
       id="path2" /><path
       style="display:inline;fill:#6c6c6c;stroke:#1c1c1c;stroke-width:0.264583;stroke-dasharray:0.264583, 0.264583;stroke-dashoffset:0"
       d="m 83.343741,62.177088 15.875,-15.875003"
       id="path4" /><path
       d="m 94.797996,60.396664 c -0.01103,0.05512 -0.03307,0.137804 -0.03307,0.15434 0,0.06063 0.04961,0.09371 0.104731,0.09371 0.0441,0 0.104731,-0.02756 0.132292,-0.09922 0.0055,-0.01102 0.121267,-0.490582 0.137803,-0.556728 0.02756,-0.115755 0.09371,-0.35829 0.110244,-0.457509 0.01654,-0.0441 0.115755,-0.209462 0.198437,-0.286632 0.02756,-0.02205 0.132292,-0.115755 0.28112,-0.115755 0.09371,0 0.143316,0.0441 0.148828,0.0441 -0.104731,0.01654 -0.181901,0.09922 -0.181901,0.192925 0,0.05512 0.03858,0.121268 0.132292,0.121268 0.09371,0 0.192925,-0.08268 0.192925,-0.209462 0,-0.121268 -0.110243,-0.225999 -0.292144,-0.225999 -0.225998,0 -0.380339,0.170877 -0.446485,0.270096 -0.03307,-0.159852 -0.159852,-0.270096 -0.325217,-0.270096 -0.159852,0 -0.225998,0.137804 -0.259071,0.198438 -0.06063,0.121268 -0.104731,0.33073 -0.104731,0.341754 0,0.03858 0.03307,0.03858 0.03858,0.03858 0.03858,0 0.03858,-0.0055 0.06063,-0.08268 0.06063,-0.248047 0.132292,-0.418924 0.259071,-0.418924 0.05512,0 0.104731,0.02756 0.104731,0.159852 0,0.07717 -0.01102,0.115756 -0.05512,0.297657 z m 0,0"
       id="path8-3"
       style="display:inline;stroke-width:0.352778"
       inkscape:label="r" /><path
       d="m 87.51644,60.396787 c -0.01103,0.05512 -0.03307,0.137804 -0.03307,0.15434 0,0.06063 0.04961,0.09371 0.104731,0.09371 0.0441,0 0.104731,-0.02756 0.132292,-0.09922 0.0055,-0.01102 0.121267,-0.490582 0.137803,-0.556728 0.02756,-0.115755 0.09371,-0.35829 0.110244,-0.457509 0.01654,-0.0441 0.115755,-0.209462 0.198437,-0.286632 0.02756,-0.02205 0.132292,-0.115755 0.28112,-0.115755 0.09371,0 0.143316,0.0441 0.148828,0.0441 -0.104731,0.01654 -0.181901,0.09922 -0.181901,0.192925 0,0.05512 0.03858,0.121268 0.132292,0.121268 0.09371,0 0.192925,-0.08268 0.192925,-0.209462 0,-0.121268 -0.110243,-0.225999 -0.292144,-0.225999 -0.225998,0 -0.380339,0.170877 -0.446485,0.270096 -0.03307,-0.159852 -0.159852,-0.270096 -0.325217,-0.270096 -0.159852,0 -0.225998,0.137804 -0.259071,0.198438 -0.06063,0.121268 -0.104731,0.33073 -0.104731,0.341754 0,0.03858 0.03307,0.03858 0.03858,0.03858 0.03858,0 0.03858,-0.0055 0.06063,-0.08268 0.06063,-0.248047 0.132292,-0.418924 0.259071,-0.418924 0.05512,0 0.104731,0.02756 0.104731,0.159852 0,0.07717 -0.01102,0.115756 -0.05512,0.297657 z m 0,0"
       id="path11"
       style="display:inline;stroke-width:0.352778"
       inkscape:label="r" /><path
       d="m 2.859375,-6.8125 c 0,0 0,-0.109375 -0.125,-0.109375 -0.234375,0 -0.953125,0.078125 -1.21875,0.109375 -0.078125,0 -0.1875,0.015625 -0.1875,0.1875 0,0.125 0.09375,0.125 0.234375,0.125 0.484375,0 0.5,0.0625 0.5,0.171875 L 2.03125,-6.125 0.59375,-0.390625 c -0.046875,0.140625 -0.046875,0.15625 -0.046875,0.21875 0,0.234375 0.203125,0.28125 0.296875,0.28125 0.15625,0 0.3125,-0.125 0.359375,-0.265625 l 0.1875,-0.75 0.21875,-0.890625 C 1.671875,-2.03125 1.734375,-2.25 1.78125,-2.46875 1.796875,-2.53125 1.890625,-2.859375 1.890625,-2.921875 1.921875,-3.015625 2.234375,-3.5625 2.578125,-3.84375 2.796875,-4 3.09375,-4.1875 3.53125,-4.1875 c 0.421875,0 0.53125,0.34375 0.53125,0.703125 0,0.53125 -0.375,1.625 -0.609375,2.234375 C 3.375,-1.03125 3.3125,-0.90625 3.3125,-0.703125 c 0,0.46875 0.359375,0.8125 0.828125,0.8125 0.9375,0 1.296875,-1.453125 1.296875,-1.53125 0,-0.109375 -0.078125,-0.109375 -0.109375,-0.109375 -0.109375,0 -0.109375,0.03125 -0.15625,0.1875 -0.140625,0.53125 -0.46875,1.234375 -1.015625,1.234375 -0.171875,0 -0.234375,-0.09375 -0.234375,-0.328125 0,-0.25 0.078125,-0.484375 0.171875,-0.703125 0.15625,-0.4375 0.609375,-1.625 0.609375,-2.203125 0,-0.640625 -0.390625,-1.0625 -1.140625,-1.0625 -0.625,0 -1.109375,0.3125 -1.484375,0.765625 z m 0,0"
       id="path6"
       style="fill:#ffffff"
       transform="matrix(0.35277801,0,0,0.35277801,99.874496,55.441236)"
       inkscape:label="h" /><path
       style="fill:#ffffff;stroke:#1c1c1c;stroke-width:0.264583;stroke-dasharray:0.264583, 0.264583;stroke-dashoffset:0"
       d="M 83.34948,62.177088 H 99.218741"
       id="path12" /><g
       id="g8"
       inkscape:label="2r"><path
         d="m 0.875,-0.59375 c -0.03125,0.15625 -0.09375,0.390625 -0.09375,0.4375 0,0.171875 0.140625,0.265625 0.296875,0.265625 0.125,0 0.296875,-0.078125 0.375,-0.28125 C 1.46875,-0.203125 1.796875,-1.5625 1.84375,-1.75 c 0.078125,-0.328125 0.265625,-1.015625 0.3125,-1.296875 0.046875,-0.125 0.328125,-0.59375 0.5625,-0.8125 0.078125,-0.0625 0.375,-0.328125 0.796875,-0.328125 0.265625,0 0.40625,0.125 0.421875,0.125 -0.296875,0.046875 -0.515625,0.28125 -0.515625,0.546875 0,0.15625 0.109375,0.34375 0.375,0.34375 0.265625,0 0.546875,-0.234375 0.546875,-0.59375 0,-0.34375 -0.3125,-0.640625 -0.828125,-0.640625 C 2.875,-4.40625 2.4375,-3.921875 2.25,-3.640625 2.15625,-4.09375 1.796875,-4.40625 1.328125,-4.40625 0.875,-4.40625 0.6875,-4.015625 0.59375,-3.84375 0.421875,-3.5 0.296875,-2.90625 0.296875,-2.875 c 0,0.109375 0.09375,0.109375 0.109375,0.109375 0.109375,0 0.109375,-0.015625 0.171875,-0.234375 0.171875,-0.703125 0.375,-1.1875 0.734375,-1.1875 0.15625,0 0.296875,0.078125 0.296875,0.453125 0,0.21875 -0.03125,0.328125 -0.15625,0.84375 z m 0,0"
         id="path10"
         transform="matrix(0.35277801,0,0,0.35277801,95.812232,53.991542)"
         style="display:inline"
         inkscape:label="r" /><path
         d="m 1.265625,-0.765625 1.0625,-1.03125 c 1.546875,-1.375 2.140625,-1.90625 2.140625,-2.90625 0,-1.140625 -0.890625,-1.9375 -2.109375,-1.9375 -1.125,0 -1.859375,0.921875 -1.859375,1.8125 0,0.546875 0.5,0.546875 0.53125,0.546875 0.171875,0 0.515625,-0.109375 0.515625,-0.53125 0,-0.25 -0.1875,-0.515625 -0.53125,-0.515625 -0.078125,0 -0.09375,0 -0.125,0.015625 0.21875,-0.65625 0.765625,-1.015625 1.34375,-1.015625 0.90625,0 1.328125,0.8125 1.328125,1.625 C 3.5625,-3.90625 3.078125,-3.125 2.515625,-2.5 l -1.90625,2.125 C 0.5,-0.265625 0.5,-0.234375 0.5,0 H 4.203125 L 4.46875,-1.734375 H 4.234375 C 4.171875,-1.4375 4.109375,-1 4,-0.84375 3.9375,-0.765625 3.28125,-0.765625 3.0625,-0.765625 Z m 0,0"
         id="path7-3"
         style="display:inline"
         inkscape:label="2"
         transform="matrix(0.35277801,0,0,0.35277801,94.055044,53.991542)" /></g><g
       id="g9"
       inkscape:label="2r"
       transform="translate(-8.9529246,2.4529078)"><path
         d="m 0.875,-0.59375 c -0.03125,0.15625 -0.09375,0.390625 -0.09375,0.4375 0,0.171875 0.140625,0.265625 0.296875,0.265625 0.125,0 0.296875,-0.078125 0.375,-0.28125 C 1.46875,-0.203125 1.796875,-1.5625 1.84375,-1.75 c 0.078125,-0.328125 0.265625,-1.015625 0.3125,-1.296875 0.046875,-0.125 0.328125,-0.59375 0.5625,-0.8125 0.078125,-0.0625 0.375,-0.328125 0.796875,-0.328125 0.265625,0 0.40625,0.125 0.421875,0.125 -0.296875,0.046875 -0.515625,0.28125 -0.515625,0.546875 0,0.15625 0.109375,0.34375 0.375,0.34375 0.265625,0 0.546875,-0.234375 0.546875,-0.59375 0,-0.34375 -0.3125,-0.640625 -0.828125,-0.640625 C 2.875,-4.40625 2.4375,-3.921875 2.25,-3.640625 2.15625,-4.09375 1.796875,-4.40625 1.328125,-4.40625 0.875,-4.40625 0.6875,-4.015625 0.59375,-3.84375 0.421875,-3.5 0.296875,-2.90625 0.296875,-2.875 c 0,0.109375 0.09375,0.109375 0.109375,0.109375 0.109375,0 0.109375,-0.015625 0.171875,-0.234375 0.171875,-0.703125 0.375,-1.1875 0.734375,-1.1875 0.15625,0 0.296875,0.078125 0.296875,0.453125 0,0.21875 -0.03125,0.328125 -0.15625,0.84375 z m 0,0"
         id="path8"
         transform="matrix(0.35277801,0,0,0.35277801,95.812232,53.991542)"
         style="display:inline"
         inkscape:label="r" /><path
         d="m 1.265625,-0.765625 1.0625,-1.03125 c 1.546875,-1.375 2.140625,-1.90625 2.140625,-2.90625 0,-1.140625 -0.890625,-1.9375 -2.109375,-1.9375 -1.125,0 -1.859375,0.921875 -1.859375,1.8125 0,0.546875 0.5,0.546875 0.53125,0.546875 0.171875,0 0.515625,-0.109375 0.515625,-0.53125 0,-0.25 -0.1875,-0.515625 -0.53125,-0.515625 -0.078125,0 -0.09375,0 -0.125,0.015625 0.21875,-0.65625 0.765625,-1.015625 1.34375,-1.015625 0.90625,0 1.328125,0.8125 1.328125,1.625 C 3.5625,-3.90625 3.078125,-3.125 2.515625,-2.5 l -1.90625,2.125 C 0.5,-0.265625 0.5,-0.234375 0.5,0 H 4.203125 L 4.46875,-1.734375 H 4.234375 C 4.171875,-1.4375 4.109375,-1 4,-0.84375 3.9375,-0.765625 3.28125,-0.765625 3.0625,-0.765625 Z m 0,0"
         id="path9"
         style="display:inline"
         inkscape:label="2"
         transform="matrix(0.35277801,0,0,0.35277801,94.055044,53.991542)" /></g></g></svg>
